<?xml version="1.0" encoding="UTF-8"?>
<!DOCTYPE svg PUBLIC "-//W3C//DTD SVG 1.1//EN" "http://www.w3.org/Graphics/SVG/1.1/DTD/svg11.dtd">
<!-- Creator: CorelDRAW 2020 (64 Bit) -->
<svg xmlns="http://www.w3.org/2000/svg" xml:space="preserve" width="17.78mm" height="17.78mm" version="1.1" style="shape-rendering:geometricPrecision; text-rendering:geometricPrecision; image-rendering:optimizeQuality; fill-rule:evenodd; clip-rule:evenodd"
viewBox="0 0 264.23 264.23"
 xmlns:xlink="http://www.w3.org/1999/xlink"
 xmlns:xodm="http://www.corel.com/coreldraw/odm/2003">
 <defs>
  <style type="text/css">
   <![CDATA[
    .fil0 {fill:#26CC73;fill-rule:nonzero}
   ]]>
  </style>
 </defs>
 <g id="Camada_x0020_1">
  <metadata id="CorelCorpID_0Corel-Layer"/>
  <path class="fil0" d="M245.36 0l-226.54 0c-10.38,0 -18.81,8.55 -18.81,19.05l0 226.13c0,10.5 8.43,19.05 18.81,19.05l226.54 0c10.38,0 18.87,-8.55 18.87,-19.05l0 -226.13c0,-10.5 -8.49,-19.05 -18.87,-19.05zm-165.5 226.48l-39.16 0 0 -126.1 39.22 0 0 126.1 -0.06 0zm-19.58 -143.32c-12.56,0 -22.71,-10.2 -22.71,-22.71 0,-12.5 10.15,-22.71 22.71,-22.71 12.5,0 22.71,10.2 22.71,22.71 0,12.56 -10.14,22.71 -22.71,22.71l0 0zm166.38 143.32l-39.16 0 0 -61.34c0,-14.63 -0.29,-33.44 -20.35,-33.44 -20.41,0 -23.53,15.93 -23.53,32.38l0 62.4 -39.16 0 0 -126.1 37.57 0 0 17.22 0.53 0c5.25,-9.91 18.05,-20.35 37.1,-20.35 39.63,0 47.01,26.13 47.01,60.1l0 69.13z"/>
 </g>
</svg>
