<?xml version="1.0" encoding="UTF-8"?>
<!DOCTYPE svg PUBLIC "-//W3C//DTD SVG 1.1//EN" "http://www.w3.org/Graphics/SVG/1.1/DTD/svg11.dtd">
<!-- Creator: CorelDRAW 2020 (64 Bit) -->
<svg xmlns="http://www.w3.org/2000/svg" xml:space="preserve" width="21.6764mm" height="16.8673mm" version="1.1" style="shape-rendering:geometricPrecision; text-rendering:geometricPrecision; image-rendering:optimizeQuality; fill-rule:evenodd; clip-rule:evenodd"
viewBox="0 0 762.28 593.17"
 xmlns:xlink="http://www.w3.org/1999/xlink"
 xmlns:xodm="http://www.corel.com/coreldraw/odm/2003">
 <defs>
  <style type="text/css">
   <![CDATA[
    .fil0 {fill:#26CC73;fill-rule:nonzero}
   ]]>
  </style>
 </defs>
 <g id="Camada_x0020_1">
  <metadata id="CorelCorpID_0Corel-Layer"/>
  <path class="fil0" d="M195.07 139.04c70.13,-70.12 186.69,-70.12 256.82,0 63.07,63.07 72.4,163.6 20.56,236.13l-1.39 2.02c-12.99,18.04 -38.22,22.33 -56.26,9.34 -18.16,-12.99 -22.45,-38.22 -9.46,-56.26l1.39 -2.02c28.89,-40.49 24.35,-95.86 -10.85,-131.06 -39.6,-39.61 -104.06,-39.61 -143.8,0l-141.53 141.65c-39.75,38.6 -39.75,104.06 0,143.8 35.06,35.19 90.57,39.73 130.93,10.85l2.02 -2.52c18.16,-11.85 43.39,-7.69 56.26,10.47 12.99,18.16 8.83,43.39 -9.33,56.39l-2.02 1.39c-73.66,51.85 -171.93,43.52 -234.98,-19.42 -71.23,-71.27 -71.23,-186.82 0,-257.96l141.64 -142.79zm372.11 313.96c-71.27,71.27 -186.69,71.27 -257.95,0 -63.07,-63.07 -71.27,-162.47 -19.42,-235l1.39 -2.02c11.86,-18.04 37.09,-22.33 56.26,-9.34 18.16,11.86 22.45,37.09 9.46,56.26l-1.39 2.02c-28.89,39.35 -24.34,95.86 10.85,131.06 39.61,39.61 104.06,39.61 143.8,0l141.53 -141.65c39.73,-39.73 39.73,-105.2 0,-143.8 -35.07,-35.16 -90.57,-39.75 -130.93,-10.85l-2.02 1.39c-18.16,12.99 -43.39,7.69 -56.26,-9.36 -12.99,-18.14 -8.83,-43.35 9.34,-56.31l2.02 -1.41c72.53,-51.83 171.93,-43.61 235,19.45 71.27,71.22 71.27,186.76 0,257.9l-141.65 141.65z"/>
 </g>
</svg>
