<?xml version="1.0" encoding="UTF-8"?>
<!DOCTYPE svg PUBLIC "-//W3C//DTD SVG 1.1//EN" "http://www.w3.org/Graphics/SVG/1.1/DTD/svg11.dtd">
<!-- Creator: CorelDRAW 2020 (64 Bit) -->
<svg xmlns="http://www.w3.org/2000/svg" xml:space="preserve" width="13.8786mm" height="18.4572mm" version="1.1" style="shape-rendering:geometricPrecision; text-rendering:geometricPrecision; image-rendering:optimizeQuality; fill-rule:evenodd; clip-rule:evenodd"
viewBox="0 0 1387.86 1845.72"
 xmlns:xlink="http://www.w3.org/1999/xlink"
 xmlns:xodm="http://www.corel.com/coreldraw/odm/2003">
 <defs>
  <style type="text/css">
   <![CDATA[
    .fil0 {fill:#26CC73;fill-rule:nonzero}
   ]]>
  </style>
 </defs>
 <g id="Camada_x0020_1">
  <metadata id="CorelCorpID_0Corel-Layer"/>
  <path class="fil0" d="M608.27 1804.24c-188.66,-232.03 -608.28,-794.41 -608.28,-1110.3 0,-383.25 310.68,-693.93 693.94,-693.93 383.11,0 693.94,310.68 693.94,693.93 0,315.89 -422.87,878.27 -608.28,1110.3 -44.46,55.3 -126.86,55.3 -171.32,0l0 0zm85.66 -878.99c127.58,0 231.31,-103.72 231.31,-231.31 0,-127.58 -103.73,-231.31 -231.31,-231.31 -127.58,0 -231.31,103.73 -231.31,231.31 0,127.59 103.73,231.31 231.31,231.31z"/>
 </g>
</svg>
