<?xml version="1.0" encoding="UTF-8"?>
<!DOCTYPE svg PUBLIC "-//W3C//DTD SVG 1.1//EN" "http://www.w3.org/Graphics/SVG/1.1/DTD/svg11.dtd">
<!-- Creator: CorelDRAW 2020 (64 Bit) -->
<svg xmlns="http://www.w3.org/2000/svg" xml:space="preserve" width="12.7mm" height="18.4728mm" version="1.1" style="shape-rendering:geometricPrecision; text-rendering:geometricPrecision; image-rendering:optimizeQuality; fill-rule:evenodd; clip-rule:evenodd"
viewBox="0 0 635.3 924.08"
 xmlns:xlink="http://www.w3.org/1999/xlink"
 xmlns:xodm="http://www.corel.com/coreldraw/odm/2003">
 <defs>
  <style type="text/css">
   <![CDATA[
    .fil0 {fill:#26CC73;fill-rule:nonzero}
   ]]>
  </style>
 </defs>
 <g id="Camada_x0020_1">
  <metadata id="CorelCorpID_0Corel-Layer"/>
  <path class="fil0" d="M548.67 0l-462.04 0c-47.83,0 -86.63,38.81 -86.63,86.64l0 750.8c0,47.83 38.8,86.64 86.63,86.64l462.04 0c47.83,0 86.63,-38.81 86.63,-86.64l0 -750.8c0,-47.83 -38.8,-86.64 -86.63,-86.64zm-144.39 806.94c0,17.51 -13,30.5 -28.88,30.5l-117.13 0c-14.26,0 -27.25,-12.99 -27.25,-28.87 0,-15.88 13,-28.88 28.88,-28.88l115.5 0c15.88,0 28.88,13 28.88,27.25zm115.51 -113.88l-404.28 0 0 -577.55 404.28 0 0 577.55z"/>
 </g>
</svg>
